<svg width="995" height="158" viewBox="0 0 995 158" xmlns="http://www.w3.org/2000/svg"><title>logo.yellow.horiz</title><g fill="none" fill-rule="evenodd"><path d="M97.862 18.862C97.862 8.462 89.402 0 79 0 68.6 0 60.138 8.46 60.138 18.862c0 10.4 8.46 18.86 18.862 18.86 10.4 0 18.862-8.46 18.862-18.86zm-60.14 0C37.723 8.462 29.263 0 18.863 0 8.462 0 0 8.46 0 18.862c0 10.4 8.46 18.86 18.862 18.86 10.4 0 18.86-8.46 18.86-18.86zM120.278 79c0 10.4 8.46 18.862 18.86 18.862 10.4 0 18.863-8.46 18.863-18.862 0-10.4-8.462-18.86-18.862-18.86-10.4 0-18.86 8.46-18.86 18.86zm0 60.138c0 10.4 8.46 18.862 18.86 18.862 10.4 0 18.863-8.46 18.863-18.862 0-10.4-8.462-18.86-18.862-18.86-10.4 0-18.86 8.46-18.86 18.86zm-60.14 0C60.138 149.538 68.6 158 79 158c10.4 0 18.86-8.46 18.86-18.862 0-10.4-8.46-18.86-18.86-18.86-10.4 0-18.862 8.46-18.862 18.86zm-45.43-41.752v23.367C6.303 122.65 0 130.166 0 139.138 0 149.538 8.46 158 18.862 158c10.4 0 18.86-8.46 18.86-18.862 0-9.202-6.628-16.875-15.36-18.523v-23.09c7.488-1.415 13.43-7.256 14.97-14.698H60.53C62.304 91.4 69.91 97.862 79 97.862c10.4 0 18.862-8.462 18.862-18.862 0-3.818-1.15-7.37-3.107-10.343l34.04-34.04c2.973 1.958 6.525 3.106 10.343 3.106 10.4 0 18.862-8.46 18.862-18.86C158 8.462 149.54 0 139.138 0c-10.4 0-18.86 8.462-18.86 18.862 0 3.818 1.147 7.37 3.105 10.343l-34.04 34.04C86.37 61.287 82.818 60.138 79 60.138c-9.09 0-16.696 6.464-18.47 15.035h-23.2c-1.772-8.57-9.38-15.035-18.468-15.035C8.462 60.138 0 68.6 0 79c0 8.972 6.302 16.487 14.708 18.386zm4.155-7.178c-6.18 0-11.208-5.028-11.208-11.208 0-6.18 5.028-11.207 11.208-11.207 6.18 0 11.207 5.027 11.207 11.207 0 6.18-5.028 11.208-11.208 11.208zm109.07-71.346c0-6.18 5.026-11.208 11.206-11.208s11.208 5.028 11.208 11.208c0 6.18-5.028 11.207-11.208 11.207-6.18 0-11.207-5.028-11.207-11.208zM67.79 79c0-6.18 5.028-11.207 11.208-11.207 6.18 0 11.208 5.027 11.208 11.207 0 6.18-5.028 11.208-11.208 11.208-6.18 0-11.208-5.028-11.208-11.208zm-48.93 48.93c6.18 0 11.207 5.028 11.207 11.208 0 6.18-5.028 11.208-11.208 11.208-6.18 0-11.208-5.028-11.208-11.208 0-6.18 5.028-11.207 11.208-11.207zm48.93 11.208c0-6.18 5.028-11.207 11.208-11.207 6.18 0 11.207 5.028 11.207 11.208 0 6.18-5.027 11.208-11.207 11.208-6.18 0-11.208-5.028-11.208-11.208zm60.14 0c0-6.18 5.026-11.207 11.206-11.207s11.208 5.028 11.208 11.208c0 6.18-5.028 11.208-11.208 11.208-6.18 0-11.207-5.028-11.207-11.208zm0-60.138c0-6.18 5.026-11.207 11.206-11.207S150.346 72.82 150.346 79c0 6.18-5.028 11.208-11.208 11.208-6.18 0-11.207-5.028-11.207-11.208zM30.068 18.862c0 6.18-5.028 11.207-11.208 11.207-6.18 0-11.208-5.028-11.208-11.208 0-6.18 5.028-11.208 11.208-11.208 6.18 0 11.207 5.028 11.207 11.208zm60.137 0c0 6.18-5.027 11.207-11.207 11.207-6.18 0-11.207-5.028-11.207-11.208 0-6.18 5.027-11.208 11.207-11.208 6.18 0 11.207 5.028 11.207 11.208z" fill="#000"/><path d="M238.43 51.754h16.866c12.902 0 22.99-9.67 22.99-22.573 0-12.977-10.254-22.652-23.235-22.652h-16.62v45.226zM255.218.162c16.865 0 29.76 12.482 29.76 28.94 0 16.45-12.982 28.935-30.01 28.935h-23.15V.162h23.4zm70.694 57.872h6.616V.16h-6.615v57.874zM425.02 29.76v21c-5.705 4.55-13.726 7.606-21.5 7.606-16.787 0-30.176-12.98-30.176-29.264 0-16.29 13.476-29.102 30.51-29.102 8.018 0 15.79 3.052 21.328 7.938l-3.805 4.956c-4.71-4.216-11.077-6.698-17.522-6.698-13.23 0-23.812 10.174-23.812 22.906 0 12.815 10.666 22.98 23.892 22.98 5.21 0 10.75-1.816 15.21-4.876V29.76h5.876zm44.078 28.274h6.616V.16h-6.616v57.874zM538.743 6.53v51.51h-6.615V6.53h-18.853V.16h44.4v6.37h-18.932zm56.622 36.87l-6.445 14.637h-7.03L607.85.162h6.866l25.875 57.875h-7.188l-6.45-14.636h-31.587zM611.078 7.69l-12.898 29.35h25.958l-13.06-29.35zm98.888 44.066v6.283H677.97V.162h6.615v51.592h25.38zM271.794 99.428v11.485h-28.75v11.892h25.86v10.986h-25.86v11.98h29.66v11.402h-42.55V99.428h41.64zm82.148 0v11.314h-26.766v12.48h25.444v11.313h-25.444v22.637h-12.89V99.428h39.656zm80.146 0v11.314h-26.766v12.48h25.444v11.313h-25.444v22.637h-12.89V99.428h39.656zm40.602 57.745h12.89V99.428h-12.89v57.745zm83.55-11.402c6.334 0 11.508-2.505 15.53-7.517l8.262 8.507c-6.556 7.384-14.283 11.077-23.175 11.077-8.896 0-16.22-2.814-21.976-8.428-5.755-5.623-8.63-12.71-8.63-21.272 0-8.567 2.93-15.713 8.797-21.442 5.864-5.724 13.037-8.594 21.52-8.594 9.47 0 17.404 3.61 23.794 10.827l-8.012 9.085c-4.078-5.063-9.14-7.6-15.202-7.6-4.846 0-8.99 1.582-12.435 4.75-3.44 3.167-5.16 7.438-5.16 12.803 0 5.372 1.626 9.683 4.872 12.93 3.254 3.25 7.19 4.873 11.817 4.873zm63.087 11.403h12.89V99.428h-12.89v57.745zm98.448-57.745v11.485h-28.75v11.892h25.86v10.986h-25.86v11.98h29.66v11.402h-42.55V99.428h41.64zm82.897 0h12.89v57.744h-12.89l-27.51-36.184v36.184h-12.89V99.428h12.066l28.334 37.178V99.428zm83.398 46.343c6.335 0 11.51-2.505 15.53-7.517l8.263 8.507c-6.556 7.384-14.283 11.077-23.175 11.077-8.892 0-16.22-2.814-21.976-8.428-5.756-5.623-8.63-12.71-8.63-21.272 0-8.567 2.93-15.713 8.796-21.442 5.864-5.724 13.037-8.594 21.52-8.594 9.47 0 17.404 3.61 23.794 10.827l-8.013 9.085c-4.08-5.063-9.142-7.6-15.203-7.6-4.846 0-8.99 1.582-12.435 4.75-3.44 3.167-5.162 7.438-5.162 12.803 0 5.372 1.627 9.683 4.873 12.93 3.254 3.25 7.19 4.873 11.817 4.873zm88.938 11.403h-12.89v-22.8L942.124 99.43h13.963l12.475 21.476 12.474-21.477H995l-19.992 34.944v22.8z" fill="#000"/></g></svg>