<?xml version="1.0" encoding="utf-8"?>
<!-- Generator: Adobe Illustrator 19.0.0, SVG Export Plug-In . SVG Version: 6.00 Build 0)  -->
<svg version="1.1" id="Layer_1" xmlns="http://www.w3.org/2000/svg" xmlns:xlink="http://www.w3.org/1999/xlink" x="0px" y="0px"
	 viewBox="0 0 1133.9 510.2" style="enable-background:new 0 0 1133.9 510.2;" xml:space="preserve">
<style type="text/css">
	.st0{fill-rule:evenodd;clip-rule:evenodd;fill:#FFFFFF;}
	.st1{fill:#E31F26;}
	.st2{fill:#FFDA00;}
	.st3{fill-rule:evenodd;clip-rule:evenodd;}
	.st4{fill-rule:evenodd;clip-rule:evenodd;fill:#006BB6;}
	.st5{fill:none;}
</style>
<g>
	<g>
		<path class="st0" d="M213.2,242.9c3.9,0.3,10.9,0.7,20.1,0.9c0.6,0.9,30,45.7,30,45.7s0-0.1,0-0.1c0.2,0.4,0.5,0.9,1,1.8
			c0,0,17,27.6,17.5,28.3c-0.4,1.6-0.9,7.4-1.3,31.3l-53.6-35l0-14.7c0-4-2.3-10.7-5-18.5l-0.2-0.5c-1.7-5.1-3.7-10.8-5.4-16.7
			c-2-6.9-3.1-14.9-3.1-21.8C213.2,243.3,213.2,243.1,213.2,242.9"/>
		<path class="st0" d="M395,249.1l0,0.3c0.3,1.5,0.5,3.1,0.5,4.6c0,0.2,0,0.4,0,0.6l0,0.3l0,0.2l0,0.2c0,0.1-0.1,0.3-0.1,0.3
			c0-0.1,0,0.1,0,0.1l0,0.1c0,0-0.2,0.5-0.2,0.5c-0.3,0.6-0.8,1.1-1.4,1.6c-0.7,0.6-1.5,1.3-2.1,2.4c-0.4,0.7-0.6,1.5-0.7,2.4
			c-0.5,6.8,2.6,11.7,4.6,15c0.9,1.5,1.9,3,1.9,3.9c0,0,0,0.2,0,0.2l0,0c0,0.1-0.2,0.6-1.6,1.4c0,0-1.1,0.6-1.1,0.6
			c-2.6,1.5-4,2.3-4.8,3.6c-0.6,1-0.8,2.2-0.8,3.9c0,10-0.5,15.6-1.5,18.3c-0.8,2-1.6,2-3.5,2c0,0-11.5,0-14.1,0
			c-0.5-0.9-12.8-20.7-13.8-22.3c0,0,1.2-0.7,1.2-0.7c2.2-1.3,3.5-2.8,4-4.6c0.1-0.5,0.2-0.9,0.2-1.3c0-2.3-1.3-4.4-2.7-6.7
			c-1.9-3-4.1-6.7-4.1-11.6c0-0.4,0-0.8,0-1.2c0-0.6,0.3-0.9,1.3-1.8c1.3-1.2,3.3-2.9,3.5-6.9c0-0.3,0-0.6,0-0.9
			c0-1.9-0.3-3.8-0.6-5.6c-0.3-1.5-0.4-2.8-0.5-4.1c17-1.5,29.9-3.7,35.6-4.8c0.1,1,0.2,2,0.2,2.9c0,0.3,0,0.6,0,0.9
			c0,0.3,0,0.6,0,0.9C394.5,245.8,394.7,247.5,395,249.1z"/>
		<path class="st0" d="M295.3,239.9l0.3,0c0.9-0.1,13.2-2.1,17.4-2.9c0.1,1.1,0.2,2.5,0.2,2.5c0,0,0,0.2,0,0.5c0,0.6,0,1.4,0,1.4
			c0,0,0,0,0,0.1c0,0.8,0.3,5.1,0.6,6.8c0.3,1.8,0.6,3.5,0.6,5.1c0,0.2,0,0.4,0,0.7c-0.1,2-0.9,2.7-2,3.7c-1.2,1.1-2.8,2.5-3,5.2
			c0,0.6-0.1,1.1-0.1,1.6c0,6.6,2.9,11.3,5.1,14.8c1,1.6,2.1,3.4,2.1,4.3c0,0.1,0,0.1,0,0.2c0,0.2-0.3,0.8-1.8,1.7
			c0,0-1.2,0.7-1.2,0.7c-5,2.9-6,3.5-6,8.1c0,22.5-2.1,22.5-5.5,22.5c0,0-14.6,0-15.6,0c-0.6-0.9-17.9-28.9-18.2-29.4
			c0-0.5,0-43.1,0-44.9c7.6-0.5,10.8-0.8,12-1.1c0,0,0,0.1,0,0.1L295.3,239.9z"/>
		<path class="st0" d="M315.5,291l0.4-0.2c0,0,1.2-0.7,1.2-0.7c2.3-1.3,3.7-2.9,4.1-4.8c0.1-0.5,0.2-0.9,0.2-1.4
			c0-2.4-1.4-4.6-2.9-7c-2-3.2-4.3-7-4.3-12.2c0-0.4,0-0.8,0-1.3c0-0.7,0.3-1,1.3-1.9c1.4-1.2,3.5-3.1,3.7-7.2c0-0.3,0-0.6,0-0.9
			c0-2.1-0.3-4.1-0.6-5.9c-0.3-1.6-0.5-3.1-0.5-4.5c1.3-0.1,4.4-0.4,4.4-0.4c5.9-0.6,25-3.4,31-4.5c0.1,1,0.2,2.5,0.2,2.5
			c0,0,0,1.5,0,1.5c0,0,0,0.4,0,0.4c0,0,0,0.7,0,0.7c0,1.9,0.3,3.7,0.6,5.6c0,0,0,0.2,0,0.2c0.3,1.8,0.6,3.6,0.5,5.3
			c-0.1,1.9-0.8,2.5-1.9,3.5l-1.5,1.6c-0.5,0.6-0.8,1.3-1.1,2c0,0.1-0.1,0.3-0.1,0.3c0,0,0,0,0,0c0,0-0.2,1.2-0.2,1.2
			c0,0,0,0.4,0,0.4l0,0.2c0,0.3,0,0.7,0,1c0,2.9,0.6,5.7,1.8,8.5c0.9,2.1,2,3.9,3,5.5c1,1.6,2,3.3,2,4.2c0,0.1,0,0.1,0,0.2
			c0,0.2-0.3,0.7-1.7,1.5c0,0-1.2,0.7-1.2,0.7c-4.6,2.7-5.8,3.3-5.8,7.7v0c0,21.4-2,21.4-5.2,21.4c0,0-12.1,0-14.8,0
			c-0.5-0.9-13-21-14-22.6C314.9,291.3,315.5,291,315.5,291z"/>
		<path class="st0" d="M263.1,243.1c0,1.8,0,31.4,0,36.9c-2.9-4.4-22.2-33.7-23.8-36.2C247.4,243.8,255.4,243.6,263.1,243.1z"/>
		<path class="st0" d="M365.2,332.6l0,0.7l-37.6,24.6c0.3-20.9,0.6-35.6,0.8-38.8c1.4,0,14.8,0,14.8,0c8.3,0,10.1-4.6,10.1-26.2v0
			c2,3.2,12.6,20.3,13,21C365.9,315.3,365.6,319.1,365.2,332.6z"/>
	</g>
	<path class="st0" d="M322.6,360.5l0,0.7l-13.1,8.6L285.6,354l0-0.6c0.2-9.2,0.5-27.6,0.7-31.4c1.4,0,15.6,0,15.6,0
		c8.2,0,10.3-4.4,10.5-24.3c3.2,5.1,9.6,15.6,11.7,18.9C323.6,318.6,322.9,326.2,322.6,360.5z"/>
</g>
<path class="st1" d="M306.8,195.1c-1.1,1.4-5,7.4-5.4,8.6c-2.6-2.7-5.5-5-8.5-7C297,195.7,301.5,194.7,306.8,195.1z"/>
<path class="st2" d="M313,195.4c3,0.3,5.8,0.8,8.5,1.6c0.1,0,1.5,0.5,2,0.6c1.7,0.6,3.3,1.2,4.9,2c1,0.5,1.9,1,2.8,1.5
	c3.6,2.1,6.8,4.6,9.8,7.7c0.6,0.7,1.3,1.4,1.9,2.1c0.5,0.6,1.1,1.3,1.6,2c5.3,7,8.2,14.9,9.5,21.2c-4,0.8-18,3.4-36.9,5.1
	c-0.3-8.3-4-22.1-13.7-33.3c3-6,5.7-9.2,7.1-10.8C311.1,195.2,313,195.4,313,195.4z"/>
<path class="st1" d="M349.8,198.2c-1.6,2-3.8,5.1-5.8,9.6c-1.8-2-6-5.8-8.9-7.7C339.4,198.9,344.3,198.2,349.8,198.2z"/>
<path class="st2" d="M382.4,211.2c7.1,7.5,10.9,16.9,12.3,24.1c-3.9,0.8-18.1,3.4-37.1,5c-0.2-7.5-3.4-19.9-11.7-30.3
	c2.8-6.6,6.1-10.4,7.5-11.8c3.7,0.2,7.1,0.8,10.4,1.7C371,202,377.2,205.8,382.4,211.2z"/>
<path class="st1" d="M263.7,191.9c-2.8,3.4-7.1,9.8-9.9,20.2c-0.6,2.2-1.1,4.4-1.4,6.6c-1.5,9.4-0.8,18-0.5,21
	c-19.6,0.6-35.1-0.4-39.6-0.8c0.2-1.9,0.4-3.8,0.8-5.6c0.4-1.8,0.9-3.5,1.4-5.3C220,210.4,233,192,263.7,191.9z"/>
<path class="st2" d="M287.5,197.1c4.5,2.2,8.6,5.3,12.2,9.1c0.2,0.2,1.7,1.8,2.1,2.4c6.5,7.8,10,17,11.4,24.2
	c-4.9,1-24,4.5-48.9,6.2c-3.2,0.2-6.4,0.4-9.4,0.5c-0.3-3.1-1.4-15.4,1.8-26.7c3.4-12.3,9-18.8,11-20.9
	C276.8,192,285.4,196.1,287.5,197.1z"/>
<rect x="436.4" y="182.5" class="st2" width="41.9" height="15.2"/>
<rect x="436.4" y="167.4" class="st1" width="41.9" height="15.2"/>
<rect x="155.5" y="182.5" class="st2" width="41.9" height="15.2"/>
<rect x="155.5" y="167.4" class="st1" width="41.9" height="15.2"/>
<path class="st3" d="M436.3,221.4v-18.8c1.2,0,46.9,0,46.9,0v-40.3h-51.9v55.8l-121.8-80.7l-3.5,2.3l-150.4,99.7v-36.7
	c1.2,0,46.9,0,46.9,0v-40.3h-51.9v80.3l-22.2,14.7l181,118.3l181-118.3L436.3,221.4z M436.4,167.4h41.9v30.3h-41.9V167.4z
	 M155.5,167.4h41.9v30.3h-41.9V167.4z M280.6,350.8l-53.6-35l0-14.7c0-4-2.3-10.7-5-18.5l-0.2-0.5c-1.7-5.1-3.7-10.8-5.4-16.7
	c-2-6.9-3.1-14.9-3.1-21.8c0-0.2,0-0.4,0-0.6c3.9,0.3,10.9,0.7,20.1,0.9c0.6,0.9,30,45.7,30,45.7s0-0.1,0-0.1c0.2,0.4,0.5,0.9,1,1.8
	c0,0,17,27.6,17.5,28.3C281.5,321.1,281,326.8,280.6,350.8z M299,207c0,0,2.1,2.4,2.1,2.4c7,8.4,9.9,17.5,11,22.7
	c-5.4,1-24.1,4.4-47.7,5.9c0,0-6.1,0.3-8.5,0.4c-0.2-1.7-0.3-4.3-0.3-7.6c0-5.1,0.4-11.6,2.1-17.7c3.2-11.7,8.5-18.1,10.4-20.1
	c8.2,0.1,16,3.5,19,5l0,0C291.4,200.1,295.4,203.1,299,207z M288,196.2C288,196.2,288,196.2,288,196.2
	C288,196.2,288,196.2,288,196.2L288,196.2z M395,249.1l0,0.3c0.3,1.5,0.5,3.1,0.5,4.6c0,0.2,0,0.4,0,0.6c0,0,0,0.3,0,0.3l0,0.2
	l0,0.2c0,0.1-0.1,0.3-0.1,0.3c0-0.1,0,0.1,0,0.1l0,0.1c0,0-0.2,0.5-0.2,0.5c-0.3,0.6-0.8,1.1-1.4,1.6c-0.7,0.6-1.5,1.3-2.1,2.4
	c-0.4,0.7-0.6,1.5-0.7,2.4c-0.5,6.8,2.6,11.7,4.6,15c0.9,1.5,1.9,3,1.9,3.9c0,0,0,0.2,0,0.2l0,0c0,0.1-0.2,0.6-1.6,1.4
	c0,0-1.1,0.6-1.1,0.6c-2.6,1.5-4,2.3-4.8,3.6c-0.6,1-0.8,2.2-0.8,3.9c0,10-0.5,15.6-1.5,18.3c-0.8,2-1.6,2-3.5,2c0,0-11.5,0-14.1,0
	c-0.5-0.9-12.8-20.7-13.8-22.3c0,0,1.2-0.7,1.2-0.7c2.2-1.3,3.5-2.8,4-4.6c0.1-0.5,0.2-0.9,0.2-1.3c0-2.3-1.3-4.4-2.7-6.7
	c-1.9-3-4.1-6.7-4.1-11.6c0-0.4,0-0.8,0-1.2c0-0.6,0.3-0.9,1.3-1.8c1.3-1.2,3.3-2.9,3.5-6.9c0-0.3,0-0.6,0-0.9
	c0-1.9-0.3-3.8-0.6-5.6c-0.3-1.5-0.4-2.8-0.5-4.1c17-1.5,29.9-3.7,35.6-4.8c0.1,1,0.2,2,0.2,2.9c0,0.3,0,0.6,0,0.9
	c0,0.3,0,0.6,0,0.9C394.5,245.8,394.7,247.5,395,249.1z M295.3,239.9l0.3,0c0.9-0.1,13.2-2.1,17.4-2.9c0.1,1.1,0.2,2.5,0.2,2.5
	c0,0,0,0.2,0,0.5c0,0.6,0,1.4,0,1.4c0,0,0,0,0,0.1c0,0.8,0.3,5.1,0.6,6.8c0.3,1.8,0.6,3.5,0.6,5.1c0,0.2,0,0.4,0,0.7
	c-0.1,2-0.9,2.7-2,3.7c-1.2,1.1-2.8,2.5-3,5.2c0,0.6-0.1,1.1-0.1,1.6c0,6.6,2.9,11.3,5.1,14.8c1,1.6,2.1,3.4,2.1,4.3
	c0,0.1,0,0.1,0,0.2c0,0.2-0.3,0.8-1.8,1.7c0,0-1.2,0.7-1.2,0.7c-5,2.9-6,3.5-6,8.1c0,22.5-2.1,22.5-5.5,22.5c0,0-14.6,0-15.6,0
	c-0.6-0.9-17.9-28.9-18.2-29.4c0-0.5,0-43.1,0-44.9c7.6-0.5,10.8-0.8,12-1.1c0,0,0,0.1,0,0.1L295.3,239.9z M315.5,291l0.4-0.2
	c0,0,1.2-0.7,1.2-0.7c2.3-1.3,3.7-2.9,4.1-4.8c0.1-0.5,0.2-0.9,0.2-1.4c0-2.4-1.4-4.6-2.9-7c-2-3.2-4.3-7-4.3-12.2
	c0-0.4,0-0.8,0-1.3c0-0.7,0.3-1,1.3-1.9c1.4-1.2,3.5-3.1,3.7-7.2c0-0.3,0-0.6,0-0.9c0-2.1-0.3-4.1-0.6-5.9c-0.3-1.6-0.5-3.1-0.5-4.5
	c1.3-0.1,4.4-0.4,4.4-0.4c5.9-0.6,25-3.4,31-4.5c0.1,1,0.2,2.5,0.2,2.5c0,0,0,1.5,0,1.5c0,0,0,0.4,0,0.4c0,0,0,0.7,0,0.7
	c0,1.9,0.3,3.7,0.6,5.6c0,0,0,0.2,0,0.2c0.3,1.8,0.6,3.6,0.5,5.3c-0.1,1.9-0.8,2.5-1.9,3.5c0,0-1.5,1.6-1.5,1.6
	c-0.5,0.6-0.8,1.3-1.1,2c0,0.1-0.1,0.3-0.1,0.3c0,0,0,0,0,0c0,0-0.2,1.2-0.2,1.2c0,0,0,0.4,0,0.4l0,0.2c0,0.3,0,0.7,0,1
	c0,2.9,0.6,5.7,1.8,8.5c0.9,2.1,2,3.9,3,5.5c1,1.6,2,3.3,2,4.2c0,0.1,0,0.1,0,0.2c0,0.2-0.3,0.7-1.7,1.5c0,0-1.2,0.7-1.2,0.7
	c-4.6,2.7-5.8,3.3-5.8,7.7v0c0,21.4-2,21.4-5.2,21.4c0,0-12.1,0-14.8,0c-0.5-0.9-13-21-14-22.6C314.9,291.3,315.5,291,315.5,291z
	 M358.6,239.3c-0.5-7.6-3.7-19.3-11.5-29.3c2.5-5.7,5.3-9.2,6.7-10.6c3.4,0.2,6.7,0.8,9.8,1.6c7,2,13.1,5.7,18.2,11
	c7.8,8.2,10.8,18,11.8,22.6C388.7,235.5,375.6,237.8,358.6,239.3z M343.7,206c-1.6-1.6-4-3.8-6.2-5.5c3.2-0.7,6.6-1.2,10.3-1.3
	C346.5,200.9,345.1,203.2,343.7,206z M340.3,209.5l1.8,2c0,0,1.5,1.9,1.5,1.9c5.7,7.5,8.1,15.3,9.1,19.9c-4.8,0.9-17.8,3.2-34.8,4.8
	c-0.5-8.5-4.3-21.5-13.4-32.3c2.5-4.9,4.8-7.8,6.3-9.6c0.6,0.1,1.9,0.2,1.9,0.2c2.9,0.3,5.7,0.8,8.3,1.6c0,0,2,0.6,2,0.6
	c1.6,0.5,3.2,1.2,4.8,1.9c0,0,2.8,1.5,2.8,1.5C334.3,204,337.5,206.5,340.3,209.5z M301.1,202.1c-1.8-1.8-3.8-3.4-5.9-4.9
	c3-0.7,6.2-1.2,9.7-1.2C303.7,197.8,302,200.4,301.1,202.1z M263.1,243.1c0,1.8,0,31.4,0,36.9c-2.9-4.4-22.2-33.7-23.8-36.2
	C247.4,243.8,255.4,243.5,263.1,243.1z M252.9,211.8c-0.6,2.1-1,4.3-1.4,6.7c-0.7,4.5-0.9,8.7-0.9,12.3c0,3.3,0.2,6,0.3,7.8
	c-17.9,0.5-32.2-0.4-37.4-0.7c0.2-1.6,0.4-3.1,0.7-4.5c0.4-1.8,0.9-3.6,1.4-5.3c4.8-15.6,16.7-34.1,46-35.2
	C258.8,196.9,255.3,202.9,252.9,211.8z M322.6,360.5l0,0.7l-13.1,8.6L285.6,354l0-0.6c0.2-9.2,0.5-27.6,0.7-31.4
	c1.4,0,15.6,0,15.6,0c8.2,0,10.3-4.4,10.5-24.3c3.2,5.1,9.6,15.6,11.7,18.9C323.6,318.6,322.9,326.2,322.6,360.5z M365.2,332.6
	l0,0.7l-37.6,24.6c0.3-20.9,0.6-35.6,0.8-38.8c1.4,0,14.8,0,14.8,0c8.3,0,10.1-4.6,10.1-26.2v0c2,3.2,12.6,20.3,13,21
	C365.9,315.2,365.6,319.1,365.2,332.6z M370,329.4c0.1-4.7,0.2-11,0.3-13.1c3,0,14,0,14,0c3.4,0,4.9-0.8,6.2-2.1
	c1.7-1.7,3.4-9.5,3.4-22.9c0-0.5,0-1.3,0.1-1.5c0.3-0.2,2.4-1.5,4.2-2.6c2.1-1.2,3.4-2.7,3.8-4.4c0.1-0.4,0.2-0.9,0.2-1.3
	c0-2.2-1.3-4.2-2.6-6.4l0,0c-1.8-2.8-3.9-6.3-3.9-11c0-0.4,0-0.7,0-1.1c0-0.6,0.3-0.8,1.2-1.6c1.3-1.1,3.2-2.8,3.4-6.6
	c0-0.3,0-0.6,0-0.8c0-1.9-0.3-3.8-0.6-5.4c0,0,0-0.2,0-0.2c-0.3-1.6-0.5-3.1-0.5-4.6c0-0.2,0-0.4,0-0.6c0-0.4,0-0.8,0-1.2
	c0-7.9-3.6-22.4-14.1-33.4c-8.9-9.4-20.7-14.2-35-14.2c-6.5,0-12.5,0.9-18,2.7c-7.2-3.9-15.6-5.9-24.9-5.9c-6.3,0-12.2,0.8-17.6,2.4
	c-7.4-3.8-16-5.8-25.4-5.8c-28.8,0-48.2,15.8-54.8,44.4c-2.5,11-0.4,25.4,2.2,34.4c1.8,6.3,3.9,12.2,5.7,17.5l0.1,0.3
	c2.5,7.2,4.7,13.5,4.7,16.5c0,0,0,8.3,0,11.4l-84.3-55.1l171.8-113.9l171.8,113.9L370,330.1L370,329.4z M399.5,282.3
	C399.5,282.3,399.5,282.2,399.5,282.3C399.5,282.2,399.5,282.2,399.5,282.3C399.5,282.2,399.5,282.2,399.5,282.3L399.5,282.3
	C399.5,282.2,399.5,282.3,399.5,282.3z"/>
<path class="st4" d="M309.5,143.5l171.8,113.9L370,330.1l0-0.7c0.1-4.7,0.2-11,0.3-13.1c3,0,14,0,14,0c3.4,0,4.9-0.8,6.2-2.1
	c1.7-1.7,3.4-9.5,3.4-22.9c0-0.5,0-1.3,0.1-1.5c0.3-0.2,2.4-1.5,4.2-2.6c2.1-1.2,3.4-2.7,3.8-4.4c0.1-0.4,0.2-0.9,0.2-1.3
	c0-2.2-1.3-4.2-2.6-6.4l0,0c-1.8-2.8-3.9-6.3-3.9-11c0-0.4,0-0.7,0-1.1c0-0.6,0.3-0.8,1.2-1.6c1.3-1.1,3.2-2.8,3.4-6.6
	c0-0.3,0-0.6,0-0.8c0-1.9-0.3-3.8-0.6-5.4c0,0,0-0.2,0-0.2c-0.3-1.6-0.5-3.1-0.5-4.6c0-0.2,0-0.4,0-0.6c0-0.4,0-0.8,0-1.2
	c0-7.9-3.6-22.4-14.1-33.4c-8.9-9.4-20.7-14.2-35-14.2c-6.5,0-12.5,0.9-18,2.7c-7.2-3.9-15.6-5.9-24.9-5.9c-6.3,0-12.2,0.8-17.6,2.4
	c-7.4-3.8-16-5.8-25.4-5.8c-28.8,0-48.2,15.8-54.8,44.4c-2.5,11-0.4,25.4,2.2,34.4c1.8,6.3,3.9,12.2,5.7,17.5l0.1,0.3
	c2.5,7.2,4.7,13.5,4.7,16.5c0,0,0,8.3,0,11.4l-84.3-55.1L309.5,143.5z M399.5,282.2L399.5,282.2
	C399.5,282.2,399.5,282.2,399.5,282.2z M399.5,282.3C399.5,282.3,399.5,282.2,399.5,282.3C399.5,282.2,399.5,282.2,399.5,282.3
	C399.5,282.2,399.5,282.3,399.5,282.3z"/>
<path d="M385.7,261.2c-1.2,0-4.3,1-6.3,1.6c-2.9,0.8-3.9,0.7-3.9,1.7c0,0.4,1.4,0.4,3.5,2.1c5,4-1.3-5.4,5.2,1.1
	c1.1,1,2.5-2.7,0.9-4c-1.1-0.9,1.9-0.6,1.9-1C387.2,262.2,386.9,261.2,385.7,261.2z"/>
<path d="M302.4,259.9c-1.5,0-5.3,1.3-7.7,2c-3.5,1-4.8,0.9-4.8,2.1c0,0.5,1.8,0.5,4.3,2.5c6.1,5-1.7-6.6,6.5,1.3
	c1.3,1.3,3.1-3.4,1.2-4.9c-1.4-1.1,2.3-0.7,2.4-1.2C304.3,261.2,303.9,259.9,302.4,259.9z"/>
<path d="M344.7,261c-1.3,0-4.6,1.1-6.8,1.7c-3.1,0.9-4.3,0.8-4.3,1.8c0,0.4,1.6,0.4,3.8,2.2c5.4,4.4-1.5-5.8,5.7,1.1
	c1.1,1.1,2.8-3,1-4.3c-1.2-1,2-0.6,2.1-1.1C346.3,262.1,346,261,344.7,261z"/>
<g>
	<path d="M571.5,218.4h-13.3v-4c0-1.9-0.2-3.1-0.5-3.6c-0.3-0.5-0.9-0.8-1.7-0.8c-0.9,0-1.5,0.3-2,1c-0.4,0.7-0.7,1.7-0.7,3.2
		c0,1.8,0.3,3.2,0.8,4.1c0.5,0.9,1.8,2,4.1,3.3c6.4,3.8,10.4,6.9,12.1,9.3c1.7,2.4,2.5,6.3,2.5,11.6c0,3.9-0.5,6.8-1.4,8.6
		c-0.9,1.8-2.7,3.4-5.3,4.6c-2.6,1.2-5.7,1.9-9.2,1.9c-3.8,0-7.1-0.7-9.9-2.1c-2.7-1.4-4.5-3.3-5.3-5.5c-0.8-2.2-1.3-5.4-1.3-9.5
		V237h13.3v6.6c0,2,0.2,3.3,0.6,3.9c0.4,0.6,1,0.9,2,0.9c1,0,1.7-0.4,2.1-1.1c0.5-0.7,0.7-1.8,0.7-3.3c0-3.2-0.4-5.3-1.3-6.3
		c-0.9-1-3.2-2.7-6.7-5c-3.6-2.3-5.9-4-7.1-5.1c-1.2-1.1-2.1-2.5-2.9-4.4c-0.8-1.9-1.1-4.3-1.1-7.2c0-4.2,0.5-7.2,1.6-9.2
		c1.1-1.9,2.8-3.4,5.2-4.5c2.4-1.1,5.3-1.6,8.7-1.6c3.7,0,6.9,0.6,9.5,1.8c2.6,1.2,4.4,2.7,5.2,4.5c0.9,1.8,1.3,4.9,1.3,9.2V218.4z"
		/>
	<path d="M609.8,201.9v36.5c0,4.1-0.1,7-0.4,8.7c-0.3,1.7-1.1,3.4-2.4,5.2c-1.3,1.8-3.1,3.1-5.3,4c-2.2,0.9-4.8,1.4-7.8,1.4
		c-3.3,0-6.2-0.5-8.7-1.6c-2.5-1.1-4.4-2.5-5.7-4.2c-1.3-1.7-2-3.6-2.2-5.5c-0.2-1.9-0.3-6-0.3-12.1v-32.3h14.4v41
		c0,2.4,0.1,3.9,0.4,4.6c0.3,0.7,0.8,1,1.6,1c0.9,0,1.5-0.4,1.8-1.1c0.3-0.7,0.4-2.5,0.4-5.2v-40.2H609.8z"/>
	<path d="M615.4,201.9h10.1c6.8,0,11.3,0.3,13.7,0.8c2.4,0.5,4.3,1.8,5.9,4c1.5,2.1,2.3,5.5,2.3,10.2c0,4.3-0.5,7.1-1.6,8.6
		c-1.1,1.5-3.2,2.3-6.3,2.6c2.8,0.7,4.7,1.6,5.7,2.8c1,1.2,1.6,2.2,1.8,3.2c0.2,1,0.4,3.7,0.4,8.1v14.4H634v-18.1
		c0-2.9-0.2-4.7-0.7-5.4c-0.5-0.7-1.7-1-3.6-1v24.6h-14.4V201.9z M629.7,211.2v12.2c1.6,0,2.7-0.2,3.3-0.7c0.6-0.4,1-1.9,1-4.3v-3
		c0-1.7-0.3-2.9-0.9-3.4C632.5,211.5,631.4,211.2,629.7,211.2z"/>
	<path d="M653,201.9h24.3v10.9h-9.9v10.4h8.8v10.4h-8.8v22.9H653V201.9z"/>
	<path d="M707.4,201.9v43.7h8.7v10.9h-23.1v-54.6H707.4z"/>
	<path d="M734,201.9v54.6h-14.4v-54.6H734z"/>
	<path d="M739.7,201.9H764v10.9h-9.9v10.4h8.8v10.4h-8.8v22.9h-14.4V201.9z"/>
	<path d="M767.5,201.9h24v10.9h-9.7v10.4h9v10.4h-9v12h10.5v10.9h-24.9V201.9z"/>
	<path d="M839.2,218.4h-13.3v-4c0-1.9-0.2-3.1-0.5-3.6c-0.3-0.5-0.9-0.8-1.7-0.8c-0.9,0-1.5,0.3-2,1c-0.4,0.7-0.7,1.7-0.7,3.2
		c0,1.8,0.3,3.2,0.8,4.1c0.5,0.9,1.8,2,4.1,3.3c6.4,3.8,10.4,6.9,12.1,9.3c1.7,2.4,2.5,6.3,2.5,11.6c0,3.9-0.5,6.8-1.4,8.6
		c-0.9,1.8-2.7,3.4-5.3,4.6c-2.6,1.2-5.7,1.9-9.2,1.9c-3.8,0-7.1-0.7-9.8-2.1c-2.7-1.4-4.5-3.3-5.3-5.5c-0.8-2.2-1.3-5.4-1.3-9.5
		V237h13.3v6.6c0,2,0.2,3.3,0.6,3.9c0.4,0.6,1,0.9,2,0.9s1.7-0.4,2.1-1.1c0.5-0.7,0.7-1.8,0.7-3.3c0-3.2-0.4-5.3-1.3-6.3
		c-0.9-1-3.2-2.7-6.7-5c-3.6-2.3-5.9-4-7.1-5.1c-1.2-1.1-2.1-2.5-2.9-4.4c-0.8-1.9-1.1-4.3-1.1-7.2c0-4.2,0.5-7.2,1.6-9.2
		c1.1-1.9,2.8-3.4,5.2-4.5c2.4-1.1,5.3-1.6,8.7-1.6c3.7,0,6.9,0.6,9.5,1.8c2.6,1.2,4.4,2.7,5.2,4.5c0.9,1.8,1.3,4.9,1.3,9.2V218.4z"
		/>
	<path d="M869.6,201.9l8.2,54.6h-14.7l-0.8-9.8h-5.2l-0.8,9.8h-14.9l7.3-54.6H869.6z M862,237c-0.7-6.2-1.4-13.8-2.1-23
		c-1.4,10.5-2.3,18.1-2.7,23H862z"/>
	<path d="M912.9,201.9l-7.3,54.6h-21.8l-8.3-54.6h15.2c1.8,15,3,27.8,3.8,38.2c0.8-10.5,1.5-19.9,2.4-28.1l1-10.2H912.9z"/>
	<path d="M929.8,201.9v54.6h-14.4v-54.6H929.8z"/>
	<path d="M967.6,201.9v54.6H955l-7.5-24.8v24.8h-12v-54.6h12.1l8.1,24.6v-24.6H967.6z"/>
	<path d="M1006.2,222h-14.4v-4.9c0-3.1-0.1-5.1-0.4-5.9c-0.3-0.8-0.9-1.2-1.9-1.2c-0.9,0-1.5,0.3-1.8,1c-0.3,0.7-0.5,2.4-0.5,5.2
		v26.2c0,2.5,0.2,4.1,0.5,4.8c0.3,0.8,0.9,1.2,1.9,1.2c1,0,1.7-0.4,2.1-1.3c0.4-0.9,0.5-2.6,0.5-5.1v-6.5h-2.8v-8.3h16.8v29.3h-9.1
		l-1.3-3.9c-1,1.7-2.2,3-3.7,3.8c-1.5,0.9-3.2,1.3-5.2,1.3c-2.4,0-4.6-0.6-6.7-1.7c-2.1-1.2-3.7-2.6-4.8-4.3c-1.1-1.7-1.8-3.5-2-5.4
		c-0.3-1.9-0.4-4.7-0.4-8.4v-16.2c0-5.2,0.3-9,0.9-11.4c0.6-2.4,2.2-4.5,4.9-6.5c2.7-2,6.2-3,10.4-3c4.2,0,7.7,0.9,10.4,2.6
		c2.8,1.7,4.6,3.7,5.4,6.1c0.8,2.4,1.3,5.8,1.3,10.2V222z"/>
</g>
<path class="st0" d="M313.8,372.9C313.8,372.9,313.8,372.9,313.8,372.9C313.8,372.9,313.8,372.9,313.8,372.9
	C313.8,372.9,313.8,372.8,313.8,372.9L313.8,372.9C313.8,372.9,313.8,372.9,313.8,372.9z"/>
<path class="st0" d="M313.8,372.9L313.8,372.9C313.8,372.8,313.8,372.9,313.8,372.9z"/>
<path class="st0" d="M313.8,372.9C313.8,372.9,313.8,372.9,313.8,372.9C313.8,372.9,313.8,372.9,313.8,372.9
	C313.8,372.9,313.8,372.9,313.8,372.9z"/>
<rect class="st5" width="1134.8" height="510.2"/>
<g>
	<path d="M1015.8,205.5c0.4-0.9,1-1.8,1.7-2.4c0.7-0.7,1.5-1.2,2.5-1.6c0.9-0.4,2-0.6,3-0.6c1.1,0,2.1,0.2,3,0.6
		c0.9,0.4,1.8,0.9,2.5,1.6c0.7,0.7,1.3,1.5,1.7,2.4c0.4,0.9,0.6,2,0.6,3c0,1.1-0.2,2.2-0.6,3.1c-0.4,0.9-1,1.8-1.7,2.5
		c-0.7,0.7-1.5,1.2-2.5,1.6c-0.9,0.4-1.9,0.6-3,0.6c-1.1,0-2.1-0.2-3-0.6c-0.9-0.4-1.8-0.9-2.5-1.6c-0.7-0.7-1.3-1.5-1.7-2.5
		c-0.4-0.9-0.6-2-0.6-3.1C1015.2,207.4,1015.4,206.4,1015.8,205.5z M1017.1,211.1c0.3,0.8,0.8,1.5,1.3,2.1c0.6,0.6,1.3,1.1,2,1.4
		c0.8,0.3,1.6,0.5,2.5,0.5c0.9,0,1.7-0.2,2.5-0.5c0.8-0.3,1.4-0.8,2-1.4c0.6-0.6,1-1.3,1.3-2.1c0.3-0.8,0.5-1.7,0.5-2.6
		c0-0.9-0.2-1.8-0.5-2.6c-0.3-0.8-0.8-1.5-1.3-2.1c-0.6-0.6-1.2-1.1-2-1.4c-0.8-0.3-1.6-0.5-2.5-0.5c-0.9,0-1.8,0.2-2.5,0.5
		c-0.8,0.3-1.5,0.8-2,1.4c-0.6,0.6-1,1.3-1.3,2.1c-0.3,0.8-0.5,1.7-0.5,2.6C1016.6,209.5,1016.8,210.3,1017.1,211.1z M1023.5,204
		c1.1,0,1.9,0.2,2.4,0.6c0.5,0.4,0.8,1.1,0.8,1.9c0,0.8-0.2,1.4-0.7,1.8c-0.5,0.4-1,0.6-1.7,0.7l2.6,4h-1.5l-2.5-3.9h-1.5v3.9h-1.4
		V204H1023.5z M1022.9,208c0.3,0,0.6,0,0.9,0c0.3,0,0.5-0.1,0.8-0.2c0.2-0.1,0.4-0.2,0.5-0.4c0.1-0.2,0.2-0.5,0.2-0.8
		c0-0.3-0.1-0.5-0.2-0.7c-0.1-0.2-0.3-0.3-0.5-0.4c-0.2-0.1-0.4-0.2-0.6-0.2c-0.2,0-0.5-0.1-0.7-0.1h-1.9v2.9H1022.9z"/>
</g>
<g>
	<path d="M546.4,283.5h2.3l12.5,18.1h0.1v-18.1h2v21.4H561l-12.5-18.1h-0.1v18.1h-2V283.5z"/>
	<path d="M588.1,283.1c6.7,0,10.1,5.3,10.1,11.2c0,5.9-3.4,11.2-10.1,11.2c-6.8,0-10.1-5.3-10.1-11.2
		C578,288.4,581.3,283.1,588.1,283.1z M588.1,303.6c5.6,0,8-4.7,8-9.4c0-4.7-2.4-9.4-8-9.4c-5.7,0-8.1,4.7-8.1,9.4
		C580,298.9,582.4,303.6,588.1,303.6z"/>
	<path d="M612.9,283.5h9.8c3.5,0,6.5,1.7,6.5,5.6c0,2.7-1.4,4.9-4.2,5.5v0.1c2.8,0.4,3.6,2.3,3.8,4.8c0.1,1.5,0.1,4.4,1,5.5h-2.3
		c-0.5-0.8-0.5-2.4-0.6-3.3c-0.2-3-0.4-6.3-4.3-6.2H615v9.5h-2V283.5z M615,293.7h7.6c2.5,0,4.6-1.6,4.6-4.2c0-2.6-1.6-4.3-4.6-4.3
		H615V293.7z"/>
	<path d="M642.4,283.5h17v1.7h-7.5v19.7h-2v-19.7h-7.5V283.5z"/>
	<path d="M673,283.5h2v9.3h12.7v-9.3h2v21.4h-2v-10.4H675v10.4h-2V283.5z"/>
	<path d="M705.7,283.5h14.8v1.7h-12.8v7.7h11.9v1.7h-11.9v8.5h12.9v1.7h-14.9V283.5z"/>
	<path d="M735,283.5h9.8c3.5,0,6.5,1.7,6.5,5.6c0,2.7-1.4,4.9-4.2,5.5v0.1c2.8,0.4,3.6,2.3,3.7,4.8c0.1,1.5,0.1,4.4,1,5.5h-2.3
		c-0.5-0.8-0.5-2.4-0.6-3.3c-0.2-3-0.4-6.3-4.3-6.2h-7.7v9.5h-2V283.5z M737.1,293.7h7.6c2.5,0,4.6-1.6,4.6-4.2
		c0-2.6-1.6-4.3-4.6-4.3h-7.6V293.7z"/>
	<path d="M766.6,283.5h2.3l12.5,18.1h0.1v-18.1h2v21.4h-2.3l-12.5-18.1h-0.1v18.1h-2V283.5z"/>
	<path d="M839.2,283.5h9.8c3.5,0,6.5,1.7,6.5,5.6c0,2.7-1.4,4.9-4.2,5.5v0.1c2.8,0.4,3.6,2.3,3.7,4.8c0.1,1.5,0.1,4.4,1,5.5h-2.3
		c-0.5-0.8-0.5-2.4-0.6-3.3c-0.2-3-0.4-6.3-4.3-6.2h-7.7v9.5h-2V283.5z M841.2,293.7h7.6c2.5,0,4.6-1.6,4.6-4.2
		c0-2.6-1.6-4.3-4.6-4.3h-7.6V293.7z"/>
	<path d="M870.8,283.5h14.8v1.7h-12.8v7.7h11.9v1.7h-11.9v8.5h12.9v1.7h-14.9V283.5z"/>
	<path d="M918.4,304.9h-1.5l-0.3-3.9h-0.1c-1.4,3.1-4.3,4.3-7.4,4.3c-6.8,0-10.1-5.3-10.1-11.2c0-5.8,3.4-11.2,10.1-11.2
		c4.5,0,8.2,2.4,8.9,7.1h-2c-0.3-2.5-2.8-5.4-6.9-5.4c-5.7,0-8.1,4.7-8.1,9.4c0,4.7,2.4,9.4,8.1,9.4c4.7,0,7.5-3.3,7.4-7.9h-7.3V294
		h9.1V304.9z"/>
	<path d="M934.1,283.5h2v21.4h-2V283.5z"/>
	<path d="M961.1,283.1c6.7,0,10.1,5.3,10.1,11.2c0,5.9-3.4,11.2-10.1,11.2c-6.8,0-10.1-5.3-10.1-11.2
		C951,288.4,954.4,283.1,961.1,283.1z M961.1,303.6c5.6,0,8-4.7,8-9.4c0-4.7-2.4-9.4-8-9.4c-5.7,0-8.1,4.7-8.1,9.4
		C953.1,298.9,955.5,303.6,961.1,303.6z"/>
	<path d="M985.9,283.5h2.3l12.5,18.1h0.1v-18.1h2v21.4h-2.3L988,286.8H988v18.1h-2V283.5z"/>
</g>
</svg>
