<?xml version="1.0" encoding="utf-8"?>
<!-- Generator: Adobe Illustrator 19.0.0, SVG Export Plug-In . SVG Version: 6.00 Build 0)  -->
<svg version="1.1" id="Layer_1" xmlns="http://www.w3.org/2000/svg" xmlns:xlink="http://www.w3.org/1999/xlink" x="0px" y="0px"
	 viewBox="0 0 362 238.3" style="enable-background:new 0 0 362 238.3;" xml:space="preserve">
<style type="text/css">
	.st0{fill-rule:evenodd;clip-rule:evenodd;fill:#FFFFFF;}
	.st1{fill:#E31F26;}
	.st2{fill:#FFDA00;}
	.st3{fill-rule:evenodd;clip-rule:evenodd;}
	.st4{fill-rule:evenodd;clip-rule:evenodd;fill:#006BB6;}
</style>
<g>
	<g>
		<path class="st0" d="M84.7,105.5c3.9,0.3,10.9,0.7,20.1,0.9c0.6,0.9,30,45.7,30,45.7s0-0.1,0-0.1c0.2,0.4,0.5,0.9,1,1.8
			c0,0,17,27.6,17.5,28.3c-0.4,1.6-0.9,7.4-1.3,31.3l-53.6-35l0-14.7c0-4-2.3-10.7-5-18.5l-0.2-0.5c-1.7-5.1-3.7-10.8-5.4-16.7
			c-2-6.9-3.1-14.9-3.1-21.8C84.7,105.9,84.7,105.7,84.7,105.5"/>
		<path class="st0" d="M266.5,111.7l0,0.3c0.3,1.5,0.5,3.1,0.5,4.6c0,0.2,0,0.4,0,0.6l0,0.3l0,0.2l0,0.2c0,0.1-0.1,0.3-0.1,0.3
			c0-0.1,0,0.1,0,0.1l0,0.1c0,0-0.2,0.5-0.2,0.5c-0.3,0.6-0.8,1.1-1.4,1.6c-0.7,0.6-1.5,1.3-2.1,2.4c-0.4,0.7-0.6,1.5-0.7,2.4
			c-0.5,6.8,2.6,11.7,4.6,15c0.9,1.5,1.9,3,1.9,3.9c0,0,0,0.2,0,0.2l0,0c0,0.1-0.2,0.6-1.6,1.4c0,0-1.1,0.6-1.1,0.6
			c-2.6,1.5-4,2.3-4.8,3.6c-0.6,1-0.8,2.2-0.8,3.9c0,10-0.5,15.6-1.5,18.3c-0.8,2-1.6,2-3.5,2c0,0-11.5,0-14.1,0
			c-0.5-0.9-12.8-20.7-13.8-22.3c0,0,1.2-0.7,1.2-0.7c2.2-1.3,3.5-2.8,4-4.6c0.1-0.5,0.2-0.9,0.2-1.3c0-2.3-1.3-4.4-2.7-6.7
			c-1.9-3-4.1-6.7-4.1-11.6c0-0.4,0-0.8,0-1.2c0-0.6,0.3-0.9,1.3-1.8c1.3-1.2,3.3-2.9,3.5-6.9c0-0.3,0-0.6,0-0.9
			c0-1.9-0.3-3.8-0.6-5.6c-0.3-1.5-0.4-2.8-0.5-4.1c17-1.5,29.9-3.7,35.6-4.8c0.1,1,0.2,2,0.2,2.9c0,0.3,0,0.6,0,0.9
			c0,0.3,0,0.6,0,0.9C265.9,108.4,266.2,110.1,266.5,111.7z"/>
		<path class="st0" d="M166.8,102.5l0.3,0c0.9-0.1,13.2-2.1,17.4-2.9c0.1,1.1,0.2,2.5,0.2,2.5c0,0,0,0.2,0,0.5c0,0.6,0,1.4,0,1.4
			c0,0,0,0,0,0.1c0,0.8,0.3,5.1,0.6,6.8c0.3,1.8,0.6,3.5,0.6,5.1c0,0.2,0,0.4,0,0.7c-0.1,2-0.9,2.7-2,3.7c-1.2,1.1-2.8,2.5-3,5.2
			c0,0.6-0.1,1.1-0.1,1.6c0,6.6,2.9,11.3,5.1,14.8c1,1.6,2.1,3.4,2.1,4.3c0,0.1,0,0.1,0,0.2c0,0.2-0.3,0.8-1.8,1.7
			c0,0-1.2,0.7-1.2,0.7c-5,2.9-6,3.5-6,8.1c0,22.5-2.1,22.5-5.5,22.5c0,0-14.6,0-15.6,0c-0.6-0.9-17.9-28.9-18.2-29.4
			c0-0.5,0-43.1,0-44.9c7.6-0.5,10.8-0.8,12-1.1c0,0,0,0.1,0,0.1L166.8,102.5z"/>
		<path class="st0" d="M187,153.6l0.4-0.2c0,0,1.2-0.7,1.2-0.7c2.3-1.3,3.7-2.9,4.1-4.8c0.1-0.5,0.2-0.9,0.2-1.4
			c0-2.4-1.4-4.6-2.9-7c-2-3.2-4.3-7-4.3-12.2c0-0.4,0-0.8,0-1.3c0-0.7,0.3-1,1.3-1.9c1.4-1.2,3.5-3.1,3.7-7.2c0-0.3,0-0.6,0-0.9
			c0-2.1-0.3-4.1-0.6-5.9c-0.3-1.6-0.5-3.1-0.5-4.5c1.3-0.1,4.4-0.4,4.4-0.4c5.9-0.6,25-3.4,31-4.5c0.1,1,0.2,2.5,0.2,2.5
			c0,0,0,1.5,0,1.5c0,0,0,0.4,0,0.4c0,0,0,0.7,0,0.7c0,1.9,0.3,3.7,0.6,5.6c0,0,0,0.2,0,0.2c0.3,1.8,0.6,3.6,0.5,5.3
			c-0.1,1.9-0.8,2.5-1.9,3.5l-1.5,1.6c-0.5,0.6-0.8,1.3-1.1,2c0,0.1-0.1,0.3-0.1,0.3c0,0,0,0,0,0c0,0-0.2,1.2-0.2,1.2
			c0,0,0,0.4,0,0.4l0,0.2c0,0.3,0,0.7,0,1c0,2.9,0.6,5.7,1.8,8.5c0.9,2.1,2,3.9,3,5.5c1,1.6,2,3.3,2,4.2c0,0.1,0,0.1,0,0.2
			c0,0.2-0.3,0.7-1.7,1.5c0,0-1.2,0.7-1.2,0.7c-4.6,2.7-5.8,3.3-5.8,7.7v0c0,21.4-2,21.4-5.2,21.4c0,0-12.1,0-14.8,0
			c-0.5-0.9-13-21-14-22.6C186.4,153.9,187,153.6,187,153.6z"/>
		<path class="st0" d="M134.6,105.7c0,1.8,0,31.4,0,36.9c-2.9-4.4-22.2-33.7-23.8-36.2C118.8,106.4,126.8,106.1,134.6,105.7z"/>
		<path class="st0" d="M236.7,195.2l0,0.7L199,220.5c0.3-20.9,0.6-35.6,0.8-38.8c1.4,0,14.8,0,14.8,0c8.3,0,10.1-4.6,10.1-26.2v0
			c2,3.2,12.6,20.3,13,21C237.4,177.8,237.1,181.7,236.7,195.2z"/>
	</g>
	<path class="st0" d="M194.1,223l0,0.7l-13.1,8.6L157,216.6l0-0.6c0.2-9.2,0.5-27.6,0.7-31.4c1.4,0,15.6,0,15.6,0
		c8.2,0,10.3-4.4,10.5-24.3c3.2,5.1,9.6,15.6,11.7,18.9C195.1,181.2,194.4,188.8,194.1,223z"/>
</g>
<path class="st1" d="M178.3,57.7c-1.1,1.4-5,7.4-5.4,8.6c-2.6-2.7-5.5-5-8.5-7C168.5,58.3,173,57.3,178.3,57.7z"/>
<path class="st2" d="M184.5,58c3,0.3,5.8,0.8,8.5,1.6c0.1,0,1.5,0.5,2,0.6c1.7,0.6,3.3,1.2,4.9,2c1,0.5,1.9,1,2.8,1.5
	c3.6,2.1,6.8,4.6,9.8,7.7c0.6,0.7,1.3,1.4,1.9,2.1c0.5,0.6,1.1,1.3,1.6,2c5.3,7,8.2,14.9,9.5,21.2c-4,0.8-18,3.4-36.9,5.1
	c-0.3-8.3-4-22.1-13.7-33.3c3-6,5.7-9.2,7.1-10.8C182.5,57.8,184.4,58,184.5,58z"/>
<path class="st1" d="M221.3,60.8c-1.6,2-3.8,5.1-5.8,9.6c-1.8-2-6-5.8-8.9-7.7C210.9,61.5,215.7,60.8,221.3,60.8z"/>
<path class="st2" d="M253.9,73.8c7.1,7.5,10.9,16.9,12.3,24.1c-3.9,0.8-18.1,3.4-37.1,5c-0.2-7.5-3.4-19.9-11.7-30.3
	c2.8-6.6,6.1-10.4,7.5-11.8c3.7,0.2,7.1,0.8,10.4,1.7C242.5,64.6,248.7,68.3,253.9,73.8z"/>
<path class="st1" d="M135.2,54.5c-2.8,3.4-7.1,9.8-9.9,20.2c-0.6,2.2-1.1,4.4-1.4,6.6c-1.5,9.4-0.8,18-0.5,21
	c-19.6,0.6-35.1-0.4-39.6-0.8c0.2-1.9,0.4-3.8,0.8-5.6c0.4-1.8,0.9-3.5,1.4-5.3C91.5,73,104.4,54.6,135.2,54.5z"/>
<path class="st2" d="M159,59.7c4.5,2.2,8.6,5.3,12.2,9.1c0.2,0.2,1.7,1.8,2.1,2.4c6.5,7.8,10,17,11.4,24.2c-4.9,1-24,4.5-48.9,6.2
	c-3.2,0.2-6.4,0.4-9.4,0.5c-0.3-3.1-1.4-15.4,1.8-26.7c3.4-12.3,9-18.8,11-20.9C148.2,54.6,156.8,58.6,159,59.7z"/>
<rect x="307.8" y="45.1" class="st2" width="41.9" height="15.2"/>
<rect x="307.8" y="29.9" class="st1" width="41.9" height="15.2"/>
<rect x="27" y="45.1" class="st2" width="41.9" height="15.2"/>
<rect x="27" y="29.9" class="st1" width="41.9" height="15.2"/>
<path class="st3" d="M307.8,84V65.2c1.2,0,46.9,0,46.9,0V25h-51.9v55.8L181,0l-3.5,2.3L27.1,102V65.2c1.2,0,46.9,0,46.9,0V25H22.2
	v80.3L0,120l181,118.3L362,120L307.8,84z M307.8,29.9h41.9v30.3h-41.9V29.9z M27,29.9h41.9v30.3H27V29.9z M152,213.3l-53.6-35
	l0-14.7c0-4-2.3-10.7-5-18.5l-0.2-0.5c-1.7-5.1-3.7-10.8-5.4-16.7c-2-6.9-3.1-14.9-3.1-21.8c0-0.2,0-0.4,0-0.6
	c3.9,0.3,10.9,0.7,20.1,0.9c0.6,0.9,30,45.7,30,45.7s0-0.1,0-0.1c0.2,0.4,0.5,0.9,1,1.8c0,0,17,27.6,17.5,28.3
	C153,183.7,152.5,189.4,152,213.3z M170.5,69.5c0,0,2.1,2.4,2.1,2.4c7,8.4,9.9,17.5,11,22.7c-5.4,1-24.1,4.4-47.7,5.9
	c0,0-6.1,0.3-8.5,0.4c-0.2-1.7-0.3-4.3-0.3-7.6c0-5.1,0.4-11.6,2.1-17.7c3.2-11.7,8.5-18.1,10.4-20.1c8.2,0.1,16,3.5,19,5l0,0
	C162.8,62.7,166.8,65.7,170.5,69.5z M159.4,58.8C159.4,58.8,159.4,58.8,159.4,58.8C159.4,58.8,159.4,58.8,159.4,58.8L159.4,58.8z
	 M266.5,111.7l0,0.3c0.3,1.5,0.5,3.1,0.5,4.6c0,0.2,0,0.4,0,0.6c0,0,0,0.3,0,0.3l0,0.2l0,0.2c0,0.1-0.1,0.3-0.1,0.3
	c0-0.1,0,0.1,0,0.1l0,0.1c0,0-0.2,0.5-0.2,0.5c-0.3,0.6-0.8,1.1-1.4,1.6c-0.7,0.6-1.5,1.3-2.1,2.4c-0.4,0.7-0.6,1.5-0.7,2.4
	c-0.5,6.8,2.6,11.7,4.6,15c0.9,1.5,1.9,3,1.9,3.9c0,0,0,0.2,0,0.2l0,0c0,0.1-0.2,0.6-1.6,1.4c0,0-1.1,0.6-1.1,0.6
	c-2.6,1.5-4,2.3-4.8,3.6c-0.6,1-0.8,2.2-0.8,3.9c0,10-0.5,15.6-1.5,18.3c-0.8,2-1.6,2-3.5,2c0,0-11.5,0-14.1,0
	c-0.5-0.9-12.8-20.7-13.8-22.3c0,0,1.2-0.7,1.2-0.7c2.2-1.3,3.5-2.8,4-4.6c0.1-0.5,0.2-0.9,0.2-1.3c0-2.3-1.3-4.4-2.7-6.7
	c-1.9-3-4.1-6.7-4.1-11.6c0-0.4,0-0.8,0-1.2c0-0.6,0.3-0.9,1.3-1.8c1.3-1.2,3.3-2.9,3.5-6.9c0-0.3,0-0.6,0-0.9
	c0-1.9-0.3-3.8-0.6-5.6c-0.3-1.5-0.4-2.8-0.5-4.1c17-1.5,29.9-3.7,35.6-4.8c0.1,1,0.2,2,0.2,2.9c0,0.3,0,0.6,0,0.9
	c0,0.3,0,0.6,0,0.9C265.9,108.4,266.2,110.1,266.5,111.7z M166.8,102.5l0.3,0c0.9-0.1,13.2-2.1,17.4-2.9c0.1,1.1,0.2,2.5,0.2,2.5
	c0,0,0,0.2,0,0.5c0,0.6,0,1.4,0,1.4c0,0,0,0,0,0.1c0,0.8,0.3,5.1,0.6,6.8c0.3,1.8,0.6,3.5,0.6,5.1c0,0.2,0,0.4,0,0.7
	c-0.1,2-0.9,2.7-2,3.7c-1.2,1.1-2.8,2.5-3,5.2c0,0.6-0.1,1.1-0.1,1.6c0,6.6,2.9,11.3,5.1,14.8c1,1.6,2.1,3.4,2.1,4.3
	c0,0.1,0,0.1,0,0.2c0,0.2-0.3,0.8-1.8,1.7c0,0-1.2,0.7-1.2,0.7c-5,2.9-6,3.5-6,8.1c0,22.5-2.1,22.5-5.5,22.5c0,0-14.6,0-15.6,0
	c-0.6-0.9-17.9-28.9-18.2-29.4c0-0.5,0-43.1,0-44.9c7.6-0.5,10.8-0.8,12-1.1c0,0,0,0.1,0,0.1L166.8,102.5z M187,153.6l0.4-0.2
	c0,0,1.2-0.7,1.2-0.7c2.3-1.3,3.7-2.9,4.1-4.8c0.1-0.5,0.2-0.9,0.2-1.4c0-2.4-1.4-4.6-2.9-7c-2-3.2-4.3-7-4.3-12.2
	c0-0.4,0-0.8,0-1.3c0-0.7,0.3-1,1.3-1.9c1.4-1.2,3.5-3.1,3.7-7.2c0-0.3,0-0.6,0-0.9c0-2.1-0.3-4.1-0.6-5.9c-0.3-1.6-0.5-3.1-0.5-4.5
	c1.3-0.1,4.4-0.4,4.4-0.4c5.9-0.6,25-3.4,31-4.5c0.1,1,0.2,2.5,0.2,2.5c0,0,0,1.5,0,1.5c0,0,0,0.4,0,0.4c0,0,0,0.7,0,0.7
	c0,1.9,0.3,3.7,0.6,5.6c0,0,0,0.2,0,0.2c0.3,1.8,0.6,3.6,0.5,5.3c-0.1,1.9-0.8,2.5-1.9,3.5c0,0-1.5,1.6-1.5,1.6
	c-0.5,0.6-0.8,1.3-1.1,2c0,0.1-0.1,0.3-0.1,0.3c0,0,0,0,0,0c0,0-0.2,1.2-0.2,1.2c0,0,0,0.4,0,0.4l0,0.2c0,0.3,0,0.7,0,1
	c0,2.9,0.6,5.7,1.8,8.5c0.9,2.1,2,3.9,3,5.5c1,1.6,2,3.3,2,4.2c0,0.1,0,0.1,0,0.2c0,0.2-0.3,0.7-1.7,1.5c0,0-1.2,0.7-1.2,0.7
	c-4.6,2.7-5.8,3.3-5.8,7.7v0c0,21.4-2,21.4-5.2,21.4c0,0-12.1,0-14.8,0c-0.5-0.9-13-21-14-22.6C186.4,153.9,187,153.6,187,153.6z
	 M230,101.9c-0.5-7.6-3.7-19.3-11.5-29.3c2.5-5.7,5.3-9.2,6.7-10.6c3.4,0.2,6.7,0.8,9.8,1.6c7,2,13.1,5.7,18.2,11
	c7.8,8.2,10.8,18,11.8,22.6C260.2,98.1,247.1,100.4,230,101.9z M215.2,68.6c-1.6-1.6-4-3.8-6.2-5.5c3.2-0.7,6.6-1.2,10.3-1.3
	C218,63.5,216.5,65.8,215.2,68.6z M211.8,72.1l1.8,2c0,0,1.5,1.9,1.5,1.9c5.7,7.5,8.1,15.3,9.1,19.9c-4.8,0.9-17.8,3.2-34.8,4.8
	c-0.5-8.5-4.3-21.5-13.4-32.3c2.5-4.9,4.8-7.8,6.3-9.6c0.6,0.1,1.9,0.2,1.9,0.2c2.9,0.3,5.7,0.8,8.3,1.6c0,0,2,0.6,2,0.6
	c1.6,0.5,3.2,1.2,4.8,1.9c0,0,2.8,1.5,2.8,1.5C205.8,66.6,209,69.1,211.8,72.1z M172.5,64.6c-1.8-1.8-3.8-3.4-5.9-4.9
	c3-0.7,6.2-1.2,9.7-1.2C175.1,60.4,173.5,63,172.5,64.6z M134.6,105.7c0,1.8,0,31.4,0,36.9c-2.9-4.4-22.2-33.7-23.8-36.2
	C118.9,106.4,126.8,106.1,134.6,105.7z M124.3,74.3c-0.6,2.1-1,4.3-1.4,6.7c-0.7,4.5-0.9,8.7-0.9,12.3c0,3.3,0.2,6,0.3,7.8
	c-17.9,0.5-32.2-0.4-37.4-0.7c0.2-1.6,0.4-3.1,0.7-4.5c0.4-1.8,0.9-3.6,1.4-5.3c4.8-15.6,16.7-34.1,46-35.2
	C130.2,59.4,126.8,65.5,124.3,74.3z M194.1,223.1l0,0.7l-13.1,8.6l-23.9-15.7l0-0.6c0.2-9.2,0.5-27.6,0.7-31.4c1.4,0,15.6,0,15.6,0
	c8.2,0,10.3-4.4,10.5-24.3c3.2,5.1,9.6,15.6,11.7,18.9C195.1,181.2,194.4,188.8,194.1,223.1z M236.7,195.2l0,0.7L199,220.5
	c0.3-20.9,0.6-35.6,0.8-38.8c1.4,0,14.8,0,14.8,0c8.3,0,10.1-4.6,10.1-26.2v0c2,3.2,12.6,20.3,13,21
	C237.4,177.8,237.1,181.7,236.7,195.2z M241.5,192c0.1-4.7,0.2-11,0.3-13.1c3,0,14,0,14,0c3.4,0,4.9-0.8,6.2-2.1
	c1.7-1.7,3.4-9.5,3.4-22.9c0-0.5,0-1.3,0.1-1.5c0.3-0.2,2.4-1.5,4.2-2.6c2.1-1.2,3.4-2.7,3.8-4.4c0.1-0.4,0.2-0.9,0.2-1.3
	c0-2.2-1.3-4.2-2.6-6.4l0,0c-1.8-2.8-3.9-6.3-3.9-11c0-0.4,0-0.7,0-1.1c0-0.6,0.3-0.8,1.2-1.6c1.3-1.1,3.2-2.8,3.4-6.6
	c0-0.3,0-0.6,0-0.8c0-1.9-0.3-3.8-0.6-5.4c0,0,0-0.2,0-0.2c-0.3-1.6-0.5-3.1-0.5-4.6c0-0.2,0-0.4,0-0.6c0-0.4,0-0.8,0-1.2
	c0-7.9-3.6-22.4-14.1-33.4c-8.9-9.4-20.7-14.2-35-14.2c-6.5,0-12.5,0.9-18,2.7c-7.2-3.9-15.6-5.9-24.9-5.9c-6.3,0-12.2,0.8-17.6,2.4
	c-7.4-3.8-16-5.8-25.4-5.8c-28.8,0-48.2,15.8-54.8,44.4c-2.5,11-0.4,25.4,2.2,34.4c1.8,6.3,3.9,12.2,5.7,17.5l0.1,0.3
	c2.5,7.2,4.7,13.5,4.7,16.5c0,0,0,8.3,0,11.4L9.2,119.9L181,6.1l171.8,113.9l-111.3,72.8L241.5,192z M270.9,144.8
	C270.9,144.8,270.9,144.8,270.9,144.8C270.9,144.8,270.9,144.8,270.9,144.8C270.9,144.8,271,144.8,270.9,144.8L270.9,144.8
	C270.9,144.8,270.9,144.8,270.9,144.8z"/>
<path class="st4" d="M181,6.1l171.8,113.9l-111.3,72.8l0-0.7c0.1-4.7,0.2-11,0.3-13.1c3,0,14,0,14,0c3.4,0,4.9-0.8,6.2-2.1
	c1.7-1.7,3.4-9.5,3.4-22.9c0-0.5,0-1.3,0.1-1.5c0.3-0.2,2.4-1.5,4.2-2.6c2.1-1.2,3.4-2.7,3.8-4.4c0.1-0.4,0.2-0.9,0.2-1.3
	c0-2.2-1.3-4.2-2.6-6.4l0,0c-1.8-2.8-3.9-6.3-3.9-11c0-0.4,0-0.7,0-1.1c0-0.6,0.3-0.8,1.2-1.6c1.3-1.1,3.2-2.8,3.4-6.6
	c0-0.3,0-0.6,0-0.8c0-1.9-0.3-3.8-0.6-5.4c0,0,0-0.2,0-0.2c-0.3-1.6-0.5-3.1-0.5-4.6c0-0.2,0-0.4,0-0.6c0-0.4,0-0.8,0-1.2
	c0-7.9-3.6-22.4-14.1-33.4c-8.9-9.4-20.7-14.2-35-14.2c-6.5,0-12.5,0.9-18,2.7c-7.2-3.9-15.6-5.9-24.9-5.9c-6.3,0-12.2,0.8-17.6,2.4
	c-7.4-3.8-16-5.8-25.4-5.8c-28.8,0-48.2,15.8-54.8,44.4c-2.5,11-0.4,25.4,2.2,34.4c1.8,6.3,3.9,12.2,5.7,17.5l0.1,0.3
	c2.5,7.2,4.7,13.5,4.7,16.5c0,0,0,8.3,0,11.4L9.2,119.9L181,6.1z M270.9,144.8L270.9,144.8C271,144.8,270.9,144.8,270.9,144.8z
	 M270.9,144.8C270.9,144.8,270.9,144.8,270.9,144.8C270.9,144.8,270.9,144.8,270.9,144.8C270.9,144.8,270.9,144.8,270.9,144.8z"/>
<path d="M257.2,123.8c-1.2,0-4.3,1-6.3,1.6c-2.9,0.8-3.9,0.7-3.9,1.7c0,0.4,1.4,0.4,3.5,2.1c5,4-1.3-5.4,5.2,1.1
	c1.1,1,2.5-2.7,0.9-4c-1.1-0.9,1.9-0.6,1.9-1C258.7,124.8,258.4,123.8,257.2,123.8z"/>
<path d="M173.9,122.5c-1.5,0-5.3,1.3-7.7,2c-3.5,1-4.8,0.9-4.8,2.1c0,0.5,1.8,0.5,4.3,2.5c6.1,5-1.7-6.6,6.5,1.3
	c1.3,1.3,3.1-3.4,1.2-4.9c-1.4-1.1,2.3-0.7,2.4-1.2C175.8,123.7,175.4,122.5,173.9,122.5z"/>
<path d="M216.2,123.6c-1.3,0-4.6,1.1-6.8,1.7c-3.1,0.9-4.3,0.8-4.3,1.8c0,0.4,1.6,0.4,3.8,2.2c5.4,4.4-1.5-5.8,5.7,1.1
	c1.1,1.1,2.8-3,1-4.3c-1.2-1,2-0.6,2.1-1.1C217.8,124.7,217.5,123.6,216.2,123.6z"/>
<path class="st0" d="M185.3,235.5C185.3,235.5,185.3,235.5,185.3,235.5C185.3,235.5,185.3,235.5,185.3,235.5
	C185.3,235.5,185.3,235.4,185.3,235.5L185.3,235.5C185.3,235.5,185.3,235.5,185.3,235.5z"/>
<path class="st0" d="M185.3,235.5L185.3,235.5C185.3,235.4,185.3,235.5,185.3,235.5z"/>
<path class="st0" d="M185.3,235.5C185.3,235.5,185.3,235.5,185.3,235.5C185.3,235.5,185.3,235.5,185.3,235.5
	C185.3,235.5,185.3,235.5,185.3,235.5z"/>
</svg>
